<svg width="48" height="71" viewBox="0 0 48 71" fill="none" xmlns="http://www.w3.org/2000/svg">
<path d="M11.7082 68.9714C17.587 68.9714 22.3582 64.2002 22.3582 58.3214V47.6714H11.7082C5.82943 47.6714 1.05823 52.4426 1.05823 58.3214C1.05823 64.2002 5.82943 68.9714 11.7082 68.9714Z" fill="white"/>
<path d="M1.05823 35.5C1.05823 29.9011 5.82943 25.3571 11.7082 25.3571H22.3582V45.6428H11.7082C5.82943 45.6428 1.05823 41.0988 1.05823 35.5Z" fill="white"/>
<path d="M1.05823 12.6786C1.05823 6.79976 5.82943 2.02856 11.7082 2.02856H22.3582V23.3286H11.7082C5.82943 23.3286 1.05823 18.5574 1.05823 12.6786Z" fill="white"/>
<path d="M24.3868 2.02856H35.0368C40.9156 2.02856 45.6868 6.79976 45.6868 12.6786C45.6868 18.5574 40.9156 23.3286 35.0368 23.3286H24.3868V2.02856Z" fill="white"/>
<path d="M45.6868 35.5C45.6868 41.0988 40.9156 45.6428 35.0368 45.6428C29.158 45.6428 24.3868 41.0988 24.3868 35.5C24.3868 29.9011 29.158 25.3571 35.0368 25.3571C40.9156 25.3571 45.6868 29.9011 45.6868 35.5Z" fill="white"/>
</svg>
