<svg width="838" height="21" viewBox="0 0 838 21" fill="none" xmlns="http://www.w3.org/2000/svg">
<path d="M4.16211 16L0.242109 5.32H2.60211L5.96211 14.74H4.84211L8.36211 5.32H10.4621L13.8821 14.74H12.7821L16.2421 5.32H18.4621L14.5221 16H12.1221L9.00211 7.66H9.74211L6.56211 16H4.16211ZM24.908 16.14C23.7214 16.14 22.6814 15.9067 21.788 15.44C20.908 14.96 20.2214 14.3067 19.728 13.48C19.248 12.6533 19.008 11.7133 19.008 10.66C19.008 9.59333 19.2414 8.65333 19.708 7.84C20.188 7.01333 20.8414 6.36667 21.668 5.9C22.508 5.43333 23.4614 5.2 24.528 5.2C25.568 5.2 26.4947 5.42667 27.308 5.88C28.1214 6.33333 28.7614 6.97333 29.228 7.8C29.6947 8.62667 29.928 9.6 29.928 10.72C29.928 10.8267 29.9214 10.9467 29.908 11.08C29.908 11.2133 29.9014 11.34 29.888 11.46H20.988V9.8H28.568L27.588 10.32C27.6014 9.70667 27.4747 9.16667 27.208 8.7C26.9414 8.23333 26.5747 7.86667 26.108 7.6C25.6547 7.33333 25.128 7.2 24.528 7.2C23.9147 7.2 23.3747 7.33333 22.908 7.6C22.4547 7.86667 22.0947 8.24 21.828 8.72C21.5747 9.18667 21.448 9.74 21.448 10.38V10.78C21.448 11.42 21.5947 11.9867 21.888 12.48C22.1814 12.9733 22.5947 13.3533 23.128 13.62C23.6614 13.8867 24.2747 14.02 24.968 14.02C25.568 14.02 26.108 13.9267 26.588 13.74C27.068 13.5533 27.4947 13.26 27.868 12.86L29.208 14.4C28.728 14.96 28.1214 15.3933 27.388 15.7C26.668 15.9933 25.8414 16.14 24.908 16.14ZM42.3768 16.14C41.4701 16.14 40.6701 15.9733 39.9768 15.64C39.2835 15.2933 38.7435 14.7733 38.3568 14.08C37.9701 13.3733 37.7768 12.4867 37.7768 11.42V5.32H40.2768V11.08C40.2768 12.04 40.4901 12.76 40.9168 13.24C41.3568 13.7067 41.9768 13.94 42.7768 13.94C43.3635 13.94 43.8701 13.82 44.2968 13.58C44.7368 13.34 45.0768 12.98 45.3168 12.5C45.5701 12.02 45.6968 11.4267 45.6968 10.72V5.32H48.1968V16H45.8168V13.12L46.2368 14C45.8768 14.6933 45.3501 15.2267 44.6568 15.6C43.9635 15.96 43.2035 16.14 42.3768 16.14ZM54.7701 16.14C53.8767 16.14 53.0167 16.0267 52.1901 15.8C51.3767 15.56 50.7301 15.2733 50.2501 14.94L51.2101 13.04C51.6901 13.3467 52.2634 13.6 52.9301 13.8C53.5967 14 54.2634 14.1 54.9301 14.1C55.7167 14.1 56.2834 13.9933 56.6301 13.78C56.9901 13.5667 57.1701 13.28 57.1701 12.92C57.1701 12.6267 57.0501 12.4067 56.8101 12.26C56.5701 12.1 56.2567 11.98 55.8701 11.9C55.4834 11.82 55.0501 11.7467 54.5701 11.68C54.1034 11.6133 53.6301 11.5267 53.1501 11.42C52.6834 11.3 52.2567 11.1333 51.8701 10.92C51.4834 10.6933 51.1701 10.3933 50.9301 10.02C50.6901 9.64667 50.5701 9.15333 50.5701 8.54C50.5701 7.86 50.7634 7.27333 51.1501 6.78C51.5367 6.27333 52.0767 5.88667 52.7701 5.62C53.4767 5.34 54.3101 5.2 55.2701 5.2C55.9901 5.2 56.7167 5.28 57.4501 5.44C58.1834 5.6 58.7901 5.82667 59.2701 6.12L58.3101 8.02C57.8034 7.71333 57.2901 7.50667 56.7701 7.4C56.2634 7.28 55.7567 7.22 55.2501 7.22C54.4901 7.22 53.9234 7.33333 53.5501 7.56C53.1901 7.78667 53.0101 8.07333 53.0101 8.42C53.0101 8.74 53.1301 8.98 53.3701 9.14C53.6101 9.3 53.9234 9.42667 54.3101 9.52C54.6967 9.61333 55.1234 9.69333 55.5901 9.76C56.0701 9.81333 56.5434 9.9 57.0101 10.02C57.4767 10.14 57.9034 10.3067 58.2901 10.52C58.6901 10.72 59.0101 11.0067 59.2501 11.38C59.4901 11.7533 59.6101 12.24 59.6101 12.84C59.6101 13.5067 59.4101 14.0867 59.0101 14.58C58.6234 15.0733 58.0701 15.46 57.3501 15.74C56.6301 16.0067 55.7701 16.14 54.7701 16.14ZM61.763 16V5.32H64.263V16H61.763ZM63.023 3.56C62.5564 3.56 62.1697 3.41333 61.863 3.12C61.5697 2.82667 61.423 2.47333 61.423 2.06C61.423 1.63333 61.5697 1.28 61.863 0.999999C62.1697 0.706666 62.5564 0.56 63.023 0.56C63.4897 0.56 63.8697 0.699999 64.163 0.979999C64.4697 1.24667 64.623 1.58667 64.623 2C64.623 2.44 64.4764 2.81333 64.183 3.12C63.8897 3.41333 63.503 3.56 63.023 3.56ZM73.6043 5.2C74.4576 5.2 75.2176 5.36667 75.8843 5.7C76.5643 6.03333 77.0976 6.54667 77.4843 7.24C77.871 7.92 78.0643 8.8 78.0643 9.88V16H75.5643V10.2C75.5643 9.25333 75.3376 8.54667 74.8843 8.08C74.4443 7.61333 73.8243 7.38 73.0243 7.38C72.4376 7.38 71.9176 7.5 71.4643 7.74C71.011 7.98 70.6576 8.34 70.4043 8.82C70.1643 9.28667 70.0443 9.88 70.0443 10.6V16H67.5443V5.32H69.9243V8.2L69.5043 7.32C69.8776 6.64 70.4176 6.12 71.1243 5.76C71.8443 5.38667 72.671 5.2 73.6043 5.2ZM86.0952 20.02C85.1086 20.02 84.1419 19.8867 83.1952 19.62C82.2619 19.3667 81.4952 18.9933 80.8952 18.5L82.0152 16.62C82.4819 17.0067 83.0686 17.3133 83.7752 17.54C84.4952 17.78 85.2219 17.9 85.9552 17.9C87.1286 17.9 87.9886 17.6267 88.5352 17.08C89.0819 16.5467 89.3552 15.74 89.3552 14.66V12.76L89.5552 10.34L89.4752 7.92V5.32H91.8552V14.38C91.8552 16.3133 91.3619 17.7333 90.3752 18.64C89.3886 19.56 87.9619 20.02 86.0952 20.02ZM85.7752 15.52C84.7619 15.52 83.8419 15.3067 83.0152 14.88C82.2019 14.44 81.5552 13.8333 81.0752 13.06C80.6086 12.2867 80.3752 11.38 80.3752 10.34C80.3752 9.31333 80.6086 8.41333 81.0752 7.64C81.5552 6.86667 82.2019 6.26667 83.0152 5.84C83.8419 5.41333 84.7619 5.2 85.7752 5.2C86.6819 5.2 87.4952 5.38 88.2152 5.74C88.9352 6.1 89.5086 6.66 89.9352 7.42C90.3752 8.18 90.5952 9.15333 90.5952 10.34C90.5952 11.5267 90.3752 12.5067 89.9352 13.28C89.5086 14.04 88.9352 14.6067 88.2152 14.98C87.4952 15.34 86.6819 15.52 85.7752 15.52ZM86.1552 13.4C86.7819 13.4 87.3419 13.2733 87.8352 13.02C88.3286 12.7533 88.7086 12.3933 88.9752 11.94C89.2552 11.4733 89.3952 10.94 89.3952 10.34C89.3952 9.74 89.2552 9.21333 88.9752 8.76C88.7086 8.29333 88.3286 7.94 87.8352 7.7C87.3419 7.44667 86.7819 7.32 86.1552 7.32C85.5286 7.32 84.9619 7.44667 84.4552 7.7C83.9619 7.94 83.5752 8.29333 83.2952 8.76C83.0286 9.21333 82.8952 9.74 82.8952 10.34C82.8952 10.94 83.0286 11.4733 83.2952 11.94C83.5752 12.3933 83.9619 12.7533 84.4552 13.02C84.9619 13.2733 85.5286 13.4 86.1552 13.4ZM104.689 16.14C103.516 16.14 102.609 15.84 101.969 15.24C101.329 14.6267 101.009 13.7267 101.009 12.54V2.96H103.509V12.48C103.509 12.9867 103.636 13.38 103.889 13.66C104.156 13.94 104.523 14.08 104.989 14.08C105.549 14.08 106.016 13.9333 106.389 13.64L107.089 15.42C106.796 15.66 106.436 15.84 106.009 15.96C105.583 16.08 105.143 16.14 104.689 16.14ZM99.2493 7.4V5.4H106.369V7.4H99.2493ZM115.206 5.2C116.059 5.2 116.819 5.36667 117.486 5.7C118.166 6.03333 118.699 6.54667 119.086 7.24C119.473 7.92 119.666 8.8 119.666 9.88V16H117.166V10.2C117.166 9.25333 116.939 8.54667 116.486 8.08C116.046 7.61333 115.426 7.38 114.626 7.38C114.039 7.38 113.519 7.5 113.066 7.74C112.613 7.98 112.259 8.34 112.006 8.82C111.766 9.28667 111.646 9.88 111.646 10.6V16H109.146V1.16H111.646V8.2L111.106 7.32C111.479 6.64 112.019 6.12 112.726 5.76C113.446 5.38667 114.273 5.2 115.206 5.2ZM127.877 16.14C126.69 16.14 125.65 15.9067 124.757 15.44C123.877 14.96 123.19 14.3067 122.697 13.48C122.217 12.6533 121.977 11.7133 121.977 10.66C121.977 9.59333 122.21 8.65333 122.677 7.84C123.157 7.01333 123.81 6.36667 124.637 5.9C125.477 5.43333 126.43 5.2 127.497 5.2C128.537 5.2 129.463 5.42667 130.277 5.88C131.09 6.33333 131.73 6.97333 132.197 7.8C132.663 8.62667 132.897 9.6 132.897 10.72C132.897 10.8267 132.89 10.9467 132.877 11.08C132.877 11.2133 132.87 11.34 132.857 11.46H123.957V9.8H131.537L130.557 10.32C130.57 9.70667 130.443 9.16667 130.177 8.7C129.91 8.23333 129.543 7.86667 129.077 7.6C128.623 7.33333 128.097 7.2 127.497 7.2C126.883 7.2 126.343 7.33333 125.877 7.6C125.423 7.86667 125.063 8.24 124.797 8.72C124.543 9.18667 124.417 9.74 124.417 10.38V10.78C124.417 11.42 124.563 11.9867 124.857 12.48C125.15 12.9733 125.563 13.3533 126.097 13.62C126.63 13.8867 127.243 14.02 127.937 14.02C128.537 14.02 129.077 13.9267 129.557 13.74C130.037 13.5533 130.463 13.26 130.837 12.86L132.177 14.4C131.697 14.96 131.09 15.3933 130.357 15.7C129.637 15.9933 128.81 16.14 127.877 16.14ZM144.846 16.14C143.672 16.14 142.766 15.84 142.126 15.24C141.486 14.6267 141.166 13.7267 141.166 12.54V2.96H143.666V12.48C143.666 12.9867 143.792 13.38 144.046 13.66C144.312 13.94 144.679 14.08 145.146 14.08C145.706 14.08 146.172 13.9333 146.546 13.64L147.246 15.42C146.952 15.66 146.592 15.84 146.166 15.96C145.739 16.08 145.299 16.14 144.846 16.14ZM139.406 7.4V5.4H146.526V7.4H139.406ZM149.302 16V5.32H151.682V8.26L151.402 7.4C151.722 6.68 152.222 6.13333 152.902 5.76C153.595 5.38667 154.455 5.2 155.482 5.2V7.58C155.375 7.55333 155.275 7.54 155.182 7.54C155.089 7.52667 154.995 7.52 154.902 7.52C153.955 7.52 153.202 7.8 152.642 8.36C152.082 8.90667 151.802 9.72667 151.802 10.82V16H149.302ZM162.525 16.14C161.339 16.14 160.299 15.9067 159.405 15.44C158.525 14.96 157.839 14.3067 157.345 13.48C156.865 12.6533 156.625 11.7133 156.625 10.66C156.625 9.59333 156.859 8.65333 157.325 7.84C157.805 7.01333 158.459 6.36667 159.285 5.9C160.125 5.43333 161.079 5.2 162.145 5.2C163.185 5.2 164.112 5.42667 164.925 5.88C165.739 6.33333 166.379 6.97333 166.845 7.8C167.312 8.62667 167.545 9.6 167.545 10.72C167.545 10.8267 167.539 10.9467 167.525 11.08C167.525 11.2133 167.519 11.34 167.505 11.46H158.605V9.8H166.185L165.205 10.32C165.219 9.70667 165.092 9.16667 164.825 8.7C164.559 8.23333 164.192 7.86667 163.725 7.6C163.272 7.33333 162.745 7.2 162.145 7.2C161.532 7.2 160.992 7.33333 160.525 7.6C160.072 7.86667 159.712 8.24 159.445 8.72C159.192 9.18667 159.065 9.74 159.065 10.38V10.78C159.065 11.42 159.212 11.9867 159.505 12.48C159.799 12.9733 160.212 13.3533 160.745 13.62C161.279 13.8867 161.892 14.02 162.585 14.02C163.185 14.02 163.725 13.9267 164.205 13.74C164.685 13.5533 165.112 13.26 165.485 12.86L166.825 14.4C166.345 14.96 165.739 15.3933 165.005 15.7C164.285 15.9933 163.459 16.14 162.525 16.14ZM176.007 5.2C176.86 5.2 177.62 5.36667 178.287 5.7C178.967 6.03333 179.5 6.54667 179.887 7.24C180.273 7.92 180.467 8.8 180.467 9.88V16H177.967V10.2C177.967 9.25333 177.74 8.54667 177.287 8.08C176.847 7.61333 176.227 7.38 175.427 7.38C174.84 7.38 174.32 7.5 173.867 7.74C173.413 7.98 173.06 8.34 172.807 8.82C172.567 9.28667 172.447 9.88 172.447 10.6V16H169.947V5.32H172.327V8.2L171.907 7.32C172.28 6.64 172.82 6.12 173.527 5.76C174.247 5.38667 175.073 5.2 176.007 5.2ZM188.178 16.14C187.151 16.14 186.224 15.9133 185.398 15.46C184.584 14.9933 183.944 14.3533 183.478 13.54C183.011 12.7267 182.778 11.7667 182.778 10.66C182.778 9.55333 183.011 8.59333 183.478 7.78C183.944 6.96667 184.584 6.33333 185.398 5.88C186.224 5.42667 187.151 5.2 188.178 5.2C189.071 5.2 189.871 5.4 190.578 5.8C191.284 6.18667 191.844 6.78 192.258 7.58C192.671 8.38 192.878 9.40667 192.878 10.66C192.878 11.9 192.678 12.9267 192.278 13.74C191.878 14.54 191.324 15.14 190.618 15.54C189.911 15.94 189.098 16.14 188.178 16.14ZM188.478 14C189.078 14 189.611 13.8667 190.078 13.6C190.558 13.3333 190.938 12.9467 191.218 12.44C191.511 11.9333 191.658 11.34 191.658 10.66C191.658 9.96667 191.511 9.37333 191.218 8.88C190.938 8.37333 190.558 7.98667 190.078 7.72C189.611 7.45333 189.078 7.32 188.478 7.32C187.878 7.32 187.338 7.45333 186.858 7.72C186.391 7.98667 186.011 8.37333 185.718 8.88C185.438 9.37333 185.298 9.96667 185.298 10.66C185.298 11.34 185.438 11.9333 185.718 12.44C186.011 12.9467 186.391 13.3333 186.858 13.6C187.338 13.8667 187.878 14 188.478 14ZM191.718 16V13.48L191.818 10.64L191.618 7.8V1.16H194.098V16H191.718ZM197.388 16V5.32H199.888V16H197.388ZM198.648 3.56C198.181 3.56 197.795 3.41333 197.488 3.12C197.195 2.82667 197.048 2.47333 197.048 2.06C197.048 1.63333 197.195 1.28 197.488 0.999999C197.795 0.706666 198.181 0.56 198.648 0.56C199.115 0.56 199.495 0.699999 199.788 0.979999C200.095 1.24667 200.248 1.58667 200.248 2C200.248 2.44 200.101 2.81333 199.808 3.12C199.515 3.41333 199.128 3.56 198.648 3.56ZM209.229 5.2C210.083 5.2 210.843 5.36667 211.509 5.7C212.189 6.03333 212.723 6.54667 213.109 7.24C213.496 7.92 213.689 8.8 213.689 9.88V16H211.189V10.2C211.189 9.25333 210.963 8.54667 210.509 8.08C210.069 7.61333 209.449 7.38 208.649 7.38C208.063 7.38 207.543 7.5 207.089 7.74C206.636 7.98 206.283 8.34 206.029 8.82C205.789 9.28667 205.669 9.88 205.669 10.6V16H203.169V5.32H205.549V8.2L205.129 7.32C205.503 6.64 206.043 6.12 206.749 5.76C207.469 5.38667 208.296 5.2 209.229 5.2ZM221.72 20.02C220.734 20.02 219.767 19.8867 218.82 19.62C217.887 19.3667 217.12 18.9933 216.52 18.5L217.64 16.62C218.107 17.0067 218.694 17.3133 219.4 17.54C220.12 17.78 220.847 17.9 221.58 17.9C222.754 17.9 223.614 17.6267 224.16 17.08C224.707 16.5467 224.98 15.74 224.98 14.66V12.76L225.18 10.34L225.1 7.92V5.32H227.48V14.38C227.48 16.3133 226.987 17.7333 226 18.64C225.014 19.56 223.587 20.02 221.72 20.02ZM221.4 15.52C220.387 15.52 219.467 15.3067 218.64 14.88C217.827 14.44 217.18 13.8333 216.7 13.06C216.234 12.2867 216 11.38 216 10.34C216 9.31333 216.234 8.41333 216.7 7.64C217.18 6.86667 217.827 6.26667 218.64 5.84C219.467 5.41333 220.387 5.2 221.4 5.2C222.307 5.2 223.12 5.38 223.84 5.74C224.56 6.1 225.134 6.66 225.56 7.42C226 8.18 226.22 9.15333 226.22 10.34C226.22 11.5267 226 12.5067 225.56 13.28C225.134 14.04 224.56 14.6067 223.84 14.98C223.12 15.34 222.307 15.52 221.4 15.52ZM221.78 13.4C222.407 13.4 222.967 13.2733 223.46 13.02C223.954 12.7533 224.334 12.3933 224.6 11.94C224.88 11.4733 225.02 10.94 225.02 10.34C225.02 9.74 224.88 9.21333 224.6 8.76C224.334 8.29333 223.954 7.94 223.46 7.7C222.967 7.44667 222.407 7.32 221.78 7.32C221.154 7.32 220.587 7.44667 220.08 7.7C219.587 7.94 219.2 8.29333 218.92 8.76C218.654 9.21333 218.52 9.74 218.52 10.34C218.52 10.94 218.654 11.4733 218.92 11.94C219.2 12.3933 219.587 12.7533 220.08 13.02C220.587 13.2733 221.154 13.4 221.78 13.4ZM242.874 16V13.84L242.734 13.38V9.6C242.734 8.86667 242.514 8.3 242.074 7.9C241.634 7.48667 240.968 7.28 240.074 7.28C239.474 7.28 238.881 7.37333 238.294 7.56C237.721 7.74667 237.234 8.00667 236.834 8.34L235.854 6.52C236.428 6.08 237.108 5.75333 237.894 5.54C238.694 5.31333 239.521 5.2 240.374 5.2C241.921 5.2 243.114 5.57333 243.954 6.32C244.808 7.05333 245.234 8.19333 245.234 9.74V16H242.874ZM239.514 16.14C238.714 16.14 238.014 16.0067 237.414 15.74C236.814 15.46 236.348 15.08 236.014 14.6C235.694 14.1067 235.534 13.5533 235.534 12.94C235.534 12.34 235.674 11.8 235.954 11.32C236.248 10.84 236.721 10.46 237.374 10.18C238.028 9.9 238.894 9.76 239.974 9.76H243.074V11.42H240.154C239.301 11.42 238.728 11.56 238.434 11.84C238.141 12.1067 237.994 12.44 237.994 12.84C237.994 13.2933 238.174 13.6533 238.534 13.92C238.894 14.1867 239.394 14.32 240.034 14.32C240.648 14.32 241.194 14.18 241.674 13.9C242.168 13.62 242.521 13.2067 242.734 12.66L243.154 14.16C242.914 14.7867 242.481 15.2733 241.854 15.62C241.241 15.9667 240.461 16.14 239.514 16.14ZM254.503 5.2C255.356 5.2 256.116 5.36667 256.783 5.7C257.463 6.03333 257.996 6.54667 258.383 7.24C258.769 7.92 258.963 8.8 258.963 9.88V16H256.463V10.2C256.463 9.25333 256.236 8.54667 255.783 8.08C255.343 7.61333 254.723 7.38 253.923 7.38C253.336 7.38 252.816 7.5 252.363 7.74C251.909 7.98 251.556 8.34 251.303 8.82C251.063 9.28667 250.943 9.88 250.943 10.6V16H248.443V5.32H250.823V8.2L250.403 7.32C250.776 6.64 251.316 6.12 252.023 5.76C252.743 5.38667 253.569 5.2 254.503 5.2ZM266.674 16.14C265.647 16.14 264.72 15.9133 263.894 15.46C263.08 14.9933 262.44 14.3533 261.974 13.54C261.507 12.7267 261.274 11.7667 261.274 10.66C261.274 9.55333 261.507 8.59333 261.974 7.78C262.44 6.96667 263.08 6.33333 263.894 5.88C264.72 5.42667 265.647 5.2 266.674 5.2C267.567 5.2 268.367 5.4 269.074 5.8C269.78 6.18667 270.34 6.78 270.754 7.58C271.167 8.38 271.374 9.40667 271.374 10.66C271.374 11.9 271.174 12.9267 270.774 13.74C270.374 14.54 269.82 15.14 269.114 15.54C268.407 15.94 267.594 16.14 266.674 16.14ZM266.974 14C267.574 14 268.107 13.8667 268.574 13.6C269.054 13.3333 269.434 12.9467 269.714 12.44C270.007 11.9333 270.154 11.34 270.154 10.66C270.154 9.96667 270.007 9.37333 269.714 8.88C269.434 8.37333 269.054 7.98667 268.574 7.72C268.107 7.45333 267.574 7.32 266.974 7.32C266.374 7.32 265.834 7.45333 265.354 7.72C264.887 7.98667 264.507 8.37333 264.214 8.88C263.934 9.37333 263.794 9.96667 263.794 10.66C263.794 11.34 263.934 11.9333 264.214 12.44C264.507 12.9467 264.887 13.3333 265.354 13.6C265.834 13.8667 266.374 14 266.974 14ZM270.214 16V13.48L270.314 10.64L270.114 7.8V1.16H272.594V16H270.214ZM287.331 16.14C286.425 16.14 285.618 15.94 284.911 15.54C284.205 15.14 283.645 14.54 283.231 13.74C282.831 12.9267 282.631 11.9 282.631 10.66C282.631 9.40667 282.838 8.38 283.251 7.58C283.678 6.78 284.245 6.18667 284.951 5.8C285.671 5.4 286.465 5.2 287.331 5.2C288.385 5.2 289.311 5.42667 290.111 5.88C290.925 6.33333 291.565 6.96667 292.031 7.78C292.511 8.59333 292.751 9.55333 292.751 10.66C292.751 11.7667 292.511 12.7267 292.031 13.54C291.565 14.3533 290.925 14.9933 290.111 15.46C289.311 15.9133 288.385 16.14 287.331 16.14ZM281.411 16V1.16H283.911V7.8L283.711 10.64L283.791 13.48V16H281.411ZM287.051 14C287.651 14 288.185 13.8667 288.651 13.6C289.131 13.3333 289.511 12.9467 289.791 12.44C290.071 11.9333 290.211 11.34 290.211 10.66C290.211 9.96667 290.071 9.37333 289.791 8.88C289.511 8.37333 289.131 7.98667 288.651 7.72C288.185 7.45333 287.651 7.32 287.051 7.32C286.451 7.32 285.911 7.45333 285.431 7.72C284.951 7.98667 284.571 8.37333 284.291 8.88C284.011 9.37333 283.871 9.96667 283.871 10.66C283.871 11.34 284.011 11.9333 284.291 12.44C284.571 12.9467 284.951 13.3333 285.431 13.6C285.911 13.8667 286.451 14 287.051 14ZM300.142 16.14C298.956 16.14 297.916 15.9067 297.022 15.44C296.142 14.96 295.456 14.3067 294.962 13.48C294.482 12.6533 294.242 11.7133 294.242 10.66C294.242 9.59333 294.476 8.65333 294.942 7.84C295.422 7.01333 296.076 6.36667 296.902 5.9C297.742 5.43333 298.696 5.2 299.762 5.2C300.802 5.2 301.729 5.42667 302.542 5.88C303.356 6.33333 303.996 6.97333 304.462 7.8C304.929 8.62667 305.162 9.6 305.162 10.72C305.162 10.8267 305.156 10.9467 305.142 11.08C305.142 11.2133 305.136 11.34 305.122 11.46H296.222V9.8H303.802L302.822 10.32C302.836 9.70667 302.709 9.16667 302.442 8.7C302.176 8.23333 301.809 7.86667 301.342 7.6C300.889 7.33333 300.362 7.2 299.762 7.2C299.149 7.2 298.609 7.33333 298.142 7.6C297.689 7.86667 297.329 8.24 297.062 8.72C296.809 9.18667 296.682 9.74 296.682 10.38V10.78C296.682 11.42 296.829 11.9867 297.122 12.48C297.416 12.9733 297.829 13.3533 298.362 13.62C298.896 13.8867 299.509 14.02 300.202 14.02C300.802 14.02 301.342 13.9267 301.822 13.74C302.302 13.5533 302.729 13.26 303.102 12.86L304.442 14.4C303.962 14.96 303.356 15.3933 302.622 15.7C301.902 15.9933 301.076 16.14 300.142 16.14ZM310.864 16.14C309.97 16.14 309.11 16.0267 308.284 15.8C307.47 15.56 306.824 15.2733 306.344 14.94L307.304 13.04C307.784 13.3467 308.357 13.6 309.024 13.8C309.69 14 310.357 14.1 311.024 14.1C311.81 14.1 312.377 13.9933 312.724 13.78C313.084 13.5667 313.264 13.28 313.264 12.92C313.264 12.6267 313.144 12.4067 312.904 12.26C312.664 12.1 312.35 11.98 311.964 11.9C311.577 11.82 311.144 11.7467 310.664 11.68C310.197 11.6133 309.724 11.5267 309.244 11.42C308.777 11.3 308.35 11.1333 307.964 10.92C307.577 10.6933 307.264 10.3933 307.024 10.02C306.784 9.64667 306.664 9.15333 306.664 8.54C306.664 7.86 306.857 7.27333 307.244 6.78C307.63 6.27333 308.17 5.88667 308.864 5.62C309.57 5.34 310.404 5.2 311.364 5.2C312.084 5.2 312.81 5.28 313.544 5.44C314.277 5.6 314.884 5.82667 315.364 6.12L314.404 8.02C313.897 7.71333 313.384 7.50667 312.864 7.4C312.357 7.28 311.85 7.22 311.344 7.22C310.584 7.22 310.017 7.33333 309.644 7.56C309.284 7.78667 309.104 8.07333 309.104 8.42C309.104 8.74 309.224 8.98 309.464 9.14C309.704 9.3 310.017 9.42667 310.404 9.52C310.79 9.61333 311.217 9.69333 311.684 9.76C312.164 9.81333 312.637 9.9 313.104 10.02C313.57 10.14 313.997 10.3067 314.384 10.52C314.784 10.72 315.104 11.0067 315.344 11.38C315.584 11.7533 315.704 12.24 315.704 12.84C315.704 13.5067 315.504 14.0867 315.104 14.58C314.717 15.0733 314.164 15.46 313.444 15.74C312.724 16.0067 311.864 16.14 310.864 16.14ZM321.877 16.14C320.703 16.14 319.797 15.84 319.157 15.24C318.517 14.6267 318.197 13.7267 318.197 12.54V2.96H320.697V12.48C320.697 12.9867 320.823 13.38 321.077 13.66C321.343 13.94 321.71 14.08 322.177 14.08C322.737 14.08 323.203 13.9333 323.577 13.64L324.277 15.42C323.983 15.66 323.623 15.84 323.197 15.96C322.77 16.08 322.33 16.14 321.877 16.14ZM316.437 7.4V5.4H323.557V7.4H316.437ZM335.881 16.14C334.707 16.14 333.801 15.84 333.161 15.24C332.521 14.6267 332.201 13.7267 332.201 12.54V2.96H334.701V12.48C334.701 12.9867 334.827 13.38 335.081 13.66C335.347 13.94 335.714 14.08 336.181 14.08C336.741 14.08 337.207 13.9333 337.581 13.64L338.281 15.42C337.987 15.66 337.627 15.84 337.201 15.96C336.774 16.08 336.334 16.14 335.881 16.14ZM330.441 7.4V5.4H337.561V7.4H330.441ZM345.006 16.14C343.819 16.14 342.779 15.9067 341.886 15.44C341.006 14.96 340.319 14.3067 339.826 13.48C339.346 12.6533 339.106 11.7133 339.106 10.66C339.106 9.59333 339.339 8.65333 339.806 7.84C340.286 7.01333 340.939 6.36667 341.766 5.9C342.606 5.43333 343.559 5.2 344.626 5.2C345.666 5.2 346.592 5.42667 347.406 5.88C348.219 6.33333 348.859 6.97333 349.326 7.8C349.792 8.62667 350.026 9.6 350.026 10.72C350.026 10.8267 350.019 10.9467 350.006 11.08C350.006 11.2133 349.999 11.34 349.986 11.46H341.086V9.8H348.666L347.686 10.32C347.699 9.70667 347.572 9.16667 347.306 8.7C347.039 8.23333 346.672 7.86667 346.206 7.6C345.752 7.33333 345.226 7.2 344.626 7.2C344.012 7.2 343.472 7.33333 343.006 7.6C342.552 7.86667 342.192 8.24 341.926 8.72C341.672 9.18667 341.546 9.74 341.546 10.38V10.78C341.546 11.42 341.692 11.9867 341.986 12.48C342.279 12.9733 342.692 13.3533 343.226 13.62C343.759 13.8867 344.372 14.02 345.066 14.02C345.666 14.02 346.206 13.9267 346.686 13.74C347.166 13.5533 347.592 13.26 347.966 12.86L349.306 14.4C348.826 14.96 348.219 15.3933 347.486 15.7C346.766 15.9933 345.939 16.14 345.006 16.14ZM357.327 16.14C356.207 16.14 355.207 15.9067 354.327 15.44C353.46 14.96 352.78 14.3067 352.287 13.48C351.794 12.6533 351.547 11.7133 351.547 10.66C351.547 9.59333 351.794 8.65333 352.287 7.84C352.78 7.01333 353.46 6.36667 354.327 5.9C355.207 5.43333 356.207 5.2 357.327 5.2C358.367 5.2 359.28 5.41333 360.067 5.84C360.867 6.25333 361.474 6.86667 361.887 7.68L359.967 8.8C359.647 8.29333 359.254 7.92 358.787 7.68C358.334 7.44 357.84 7.32 357.307 7.32C356.694 7.32 356.14 7.45333 355.647 7.72C355.154 7.98667 354.767 8.37333 354.487 8.88C354.207 9.37333 354.067 9.96667 354.067 10.66C354.067 11.3533 354.207 11.9533 354.487 12.46C354.767 12.9533 355.154 13.3333 355.647 13.6C356.14 13.8667 356.694 14 357.307 14C357.84 14 358.334 13.88 358.787 13.64C359.254 13.4 359.647 13.0267 359.967 12.52L361.887 13.64C361.474 14.44 360.867 15.06 360.067 15.5C359.28 15.9267 358.367 16.14 357.327 16.14ZM370.011 5.2C370.864 5.2 371.624 5.36667 372.291 5.7C372.971 6.03333 373.504 6.54667 373.891 7.24C374.277 7.92 374.471 8.8 374.471 9.88V16H371.971V10.2C371.971 9.25333 371.744 8.54667 371.291 8.08C370.851 7.61333 370.231 7.38 369.431 7.38C368.844 7.38 368.324 7.5 367.871 7.74C367.417 7.98 367.064 8.34 366.811 8.82C366.571 9.28667 366.451 9.88 366.451 10.6V16H363.951V1.16H366.451V8.2L365.911 7.32C366.284 6.64 366.824 6.12 367.531 5.76C368.251 5.38667 369.077 5.2 370.011 5.2ZM383.702 5.2C384.555 5.2 385.315 5.36667 385.982 5.7C386.662 6.03333 387.195 6.54667 387.582 7.24C387.969 7.92 388.162 8.8 388.162 9.88V16H385.662V10.2C385.662 9.25333 385.435 8.54667 384.982 8.08C384.542 7.61333 383.922 7.38 383.122 7.38C382.535 7.38 382.015 7.5 381.562 7.74C381.109 7.98 380.755 8.34 380.502 8.82C380.262 9.28667 380.142 9.88 380.142 10.6V16H377.642V5.32H380.022V8.2L379.602 7.32C379.975 6.64 380.515 6.12 381.222 5.76C381.942 5.38667 382.769 5.2 383.702 5.2ZM396.153 16.14C395.06 16.14 394.086 15.9067 393.233 15.44C392.38 14.96 391.706 14.3067 391.213 13.48C390.72 12.6533 390.473 11.7133 390.473 10.66C390.473 9.59333 390.72 8.65333 391.213 7.84C391.706 7.01333 392.38 6.36667 393.233 5.9C394.086 5.43333 395.06 5.2 396.153 5.2C397.26 5.2 398.24 5.43333 399.093 5.9C399.96 6.36667 400.633 7.00667 401.113 7.82C401.606 8.63333 401.853 9.58 401.853 10.66C401.853 11.7133 401.606 12.6533 401.113 13.48C400.633 14.3067 399.96 14.96 399.093 15.44C398.24 15.9067 397.26 16.14 396.153 16.14ZM396.153 14C396.766 14 397.313 13.8667 397.793 13.6C398.273 13.3333 398.646 12.9467 398.913 12.44C399.193 11.9333 399.333 11.34 399.333 10.66C399.333 9.96667 399.193 9.37333 398.913 8.88C398.646 8.37333 398.273 7.98667 397.793 7.72C397.313 7.45333 396.773 7.32 396.173 7.32C395.56 7.32 395.013 7.45333 394.533 7.72C394.066 7.98667 393.693 8.37333 393.413 8.88C393.133 9.37333 392.993 9.96667 392.993 10.66C392.993 11.34 393.133 11.9333 393.413 12.44C393.693 12.9467 394.066 13.3333 394.533 13.6C395.013 13.8667 395.553 14 396.153 14ZM404.244 16V1.16H406.744V16H404.244ZM414.825 16.14C413.731 16.14 412.758 15.9067 411.905 15.44C411.051 14.96 410.378 14.3067 409.885 13.48C409.391 12.6533 409.145 11.7133 409.145 10.66C409.145 9.59333 409.391 8.65333 409.885 7.84C410.378 7.01333 411.051 6.36667 411.905 5.9C412.758 5.43333 413.731 5.2 414.825 5.2C415.931 5.2 416.911 5.43333 417.765 5.9C418.631 6.36667 419.305 7.00667 419.785 7.82C420.278 8.63333 420.525 9.58 420.525 10.66C420.525 11.7133 420.278 12.6533 419.785 13.48C419.305 14.3067 418.631 14.96 417.765 15.44C416.911 15.9067 415.931 16.14 414.825 16.14ZM414.825 14C415.438 14 415.985 13.8667 416.465 13.6C416.945 13.3333 417.318 12.9467 417.585 12.44C417.865 11.9333 418.005 11.34 418.005 10.66C418.005 9.96667 417.865 9.37333 417.585 8.88C417.318 8.37333 416.945 7.98667 416.465 7.72C415.985 7.45333 415.445 7.32 414.845 7.32C414.231 7.32 413.685 7.45333 413.205 7.72C412.738 7.98667 412.365 8.37333 412.085 8.88C411.805 9.37333 411.665 9.96667 411.665 10.66C411.665 11.34 411.805 11.9333 412.085 12.44C412.365 12.9467 412.738 13.3333 413.205 13.6C413.685 13.8667 414.225 14 414.825 14ZM427.755 20.02C426.769 20.02 425.802 19.8867 424.855 19.62C423.922 19.3667 423.155 18.9933 422.555 18.5L423.675 16.62C424.142 17.0067 424.729 17.3133 425.435 17.54C426.155 17.78 426.882 17.9 427.615 17.9C428.789 17.9 429.649 17.6267 430.195 17.08C430.742 16.5467 431.015 15.74 431.015 14.66V12.76L431.215 10.34L431.135 7.92V5.32H433.515V14.38C433.515 16.3133 433.022 17.7333 432.035 18.64C431.049 19.56 429.622 20.02 427.755 20.02ZM427.435 15.52C426.422 15.52 425.502 15.3067 424.675 14.88C423.862 14.44 423.215 13.8333 422.735 13.06C422.269 12.2867 422.035 11.38 422.035 10.34C422.035 9.31333 422.269 8.41333 422.735 7.64C423.215 6.86667 423.862 6.26667 424.675 5.84C425.502 5.41333 426.422 5.2 427.435 5.2C428.342 5.2 429.155 5.38 429.875 5.74C430.595 6.1 431.169 6.66 431.595 7.42C432.035 8.18 432.255 9.15333 432.255 10.34C432.255 11.5267 432.035 12.5067 431.595 13.28C431.169 14.04 430.595 14.6067 429.875 14.98C429.155 15.34 428.342 15.52 427.435 15.52ZM427.815 13.4C428.442 13.4 429.002 13.2733 429.495 13.02C429.989 12.7533 430.369 12.3933 430.635 11.94C430.915 11.4733 431.055 10.94 431.055 10.34C431.055 9.74 430.915 9.21333 430.635 8.76C430.369 8.29333 429.989 7.94 429.495 7.7C429.002 7.44667 428.442 7.32 427.815 7.32C427.189 7.32 426.622 7.44667 426.115 7.7C425.622 7.94 425.235 8.29333 424.955 8.76C424.689 9.21333 424.555 9.74 424.555 10.34C424.555 10.94 424.689 11.4733 424.955 11.94C425.235 12.3933 425.622 12.7533 426.115 13.02C426.622 13.2733 427.189 13.4 427.815 13.4ZM437.682 20.02C437.162 20.02 436.642 19.9333 436.122 19.76C435.602 19.5867 435.169 19.3467 434.822 19.04L435.822 17.2C436.075 17.4267 436.362 17.6067 436.682 17.74C437.002 17.8733 437.329 17.94 437.662 17.94C438.115 17.94 438.482 17.8267 438.762 17.6C439.042 17.3733 439.302 16.9933 439.542 16.46L440.162 15.06L440.362 14.76L444.402 5.32H446.802L441.802 16.86C441.469 17.66 441.095 18.2933 440.682 18.76C440.282 19.2267 439.829 19.5533 439.322 19.74C438.829 19.9267 438.282 20.02 437.682 20.02ZM439.882 16.38L435.062 5.32H437.662L441.582 14.54L439.882 16.38ZM457.912 16.14C456.739 16.14 455.832 15.84 455.192 15.24C454.552 14.6267 454.232 13.7267 454.232 12.54V2.96H456.732V12.48C456.732 12.9867 456.859 13.38 457.112 13.66C457.379 13.94 457.745 14.08 458.212 14.08C458.772 14.08 459.239 13.9333 459.612 13.64L460.312 15.42C460.019 15.66 459.659 15.84 459.232 15.96C458.805 16.08 458.365 16.14 457.912 16.14ZM452.472 7.4V5.4H459.592V7.4H452.472ZM466.817 16.14C465.724 16.14 464.75 15.9067 463.897 15.44C463.044 14.96 462.37 14.3067 461.877 13.48C461.384 12.6533 461.137 11.7133 461.137 10.66C461.137 9.59333 461.384 8.65333 461.877 7.84C462.37 7.01333 463.044 6.36667 463.897 5.9C464.75 5.43333 465.724 5.2 466.817 5.2C467.924 5.2 468.904 5.43333 469.757 5.9C470.624 6.36667 471.297 7.00667 471.777 7.82C472.27 8.63333 472.517 9.58 472.517 10.66C472.517 11.7133 472.27 12.6533 471.777 13.48C471.297 14.3067 470.624 14.96 469.757 15.44C468.904 15.9067 467.924 16.14 466.817 16.14ZM466.817 14C467.43 14 467.977 13.8667 468.457 13.6C468.937 13.3333 469.31 12.9467 469.577 12.44C469.857 11.9333 469.997 11.34 469.997 10.66C469.997 9.96667 469.857 9.37333 469.577 8.88C469.31 8.37333 468.937 7.98667 468.457 7.72C467.977 7.45333 467.437 7.32 466.837 7.32C466.224 7.32 465.677 7.45333 465.197 7.72C464.73 7.98667 464.357 8.37333 464.077 8.88C463.797 9.37333 463.657 9.96667 463.657 10.66C463.657 11.34 463.797 11.9333 464.077 12.44C464.357 12.9467 464.73 13.3333 465.197 13.6C465.677 13.8667 466.217 14 466.817 14ZM484.955 16.14C483.928 16.14 483.002 15.9133 482.175 15.46C481.362 14.9933 480.722 14.3533 480.255 13.54C479.788 12.7267 479.555 11.7667 479.555 10.66C479.555 9.55333 479.788 8.59333 480.255 7.78C480.722 6.96667 481.362 6.33333 482.175 5.88C483.002 5.42667 483.928 5.2 484.955 5.2C485.848 5.2 486.648 5.4 487.355 5.8C488.062 6.18667 488.622 6.78 489.035 7.58C489.448 8.38 489.655 9.40667 489.655 10.66C489.655 11.9 489.455 12.9267 489.055 13.74C488.655 14.54 488.102 15.14 487.395 15.54C486.688 15.94 485.875 16.14 484.955 16.14ZM485.255 14C485.855 14 486.388 13.8667 486.855 13.6C487.335 13.3333 487.715 12.9467 487.995 12.44C488.288 11.9333 488.435 11.34 488.435 10.66C488.435 9.96667 488.288 9.37333 487.995 8.88C487.715 8.37333 487.335 7.98667 486.855 7.72C486.388 7.45333 485.855 7.32 485.255 7.32C484.655 7.32 484.115 7.45333 483.635 7.72C483.168 7.98667 482.788 8.37333 482.495 8.88C482.215 9.37333 482.075 9.96667 482.075 10.66C482.075 11.34 482.215 11.9333 482.495 12.44C482.788 12.9467 483.168 13.3333 483.635 13.6C484.115 13.8667 484.655 14 485.255 14ZM488.495 16V13.48L488.595 10.64L488.395 7.8V1.16H490.875V16H488.495ZM499.185 16.14C497.999 16.14 496.959 15.9067 496.065 15.44C495.185 14.96 494.499 14.3067 494.005 13.48C493.525 12.6533 493.285 11.7133 493.285 10.66C493.285 9.59333 493.519 8.65333 493.985 7.84C494.465 7.01333 495.119 6.36667 495.945 5.9C496.785 5.43333 497.739 5.2 498.805 5.2C499.845 5.2 500.772 5.42667 501.585 5.88C502.399 6.33333 503.039 6.97333 503.505 7.8C503.972 8.62667 504.205 9.6 504.205 10.72C504.205 10.8267 504.199 10.9467 504.185 11.08C504.185 11.2133 504.179 11.34 504.165 11.46H495.265V9.8H502.845L501.865 10.32C501.879 9.70667 501.752 9.16667 501.485 8.7C501.219 8.23333 500.852 7.86667 500.385 7.6C499.932 7.33333 499.405 7.2 498.805 7.2C498.192 7.2 497.652 7.33333 497.185 7.6C496.732 7.86667 496.372 8.24 496.105 8.72C495.852 9.18667 495.725 9.74 495.725 10.38V10.78C495.725 11.42 495.872 11.9867 496.165 12.48C496.459 12.9733 496.872 13.3533 497.405 13.62C497.939 13.8867 498.552 14.02 499.245 14.02C499.845 14.02 500.385 13.9267 500.865 13.74C501.345 13.5533 501.772 13.26 502.145 12.86L503.485 14.4C503.005 14.96 502.399 15.3933 501.665 15.7C500.945 15.9933 500.119 16.14 499.185 16.14ZM509.251 16L504.671 5.32H507.271L511.211 14.74H509.931L514.011 5.32H516.411L511.831 16H509.251ZM522.701 16.14C521.514 16.14 520.474 15.9067 519.581 15.44C518.701 14.96 518.014 14.3067 517.521 13.48C517.041 12.6533 516.801 11.7133 516.801 10.66C516.801 9.59333 517.034 8.65333 517.501 7.84C517.981 7.01333 518.634 6.36667 519.461 5.9C520.301 5.43333 521.254 5.2 522.321 5.2C523.361 5.2 524.288 5.42667 525.101 5.88C525.914 6.33333 526.554 6.97333 527.021 7.8C527.488 8.62667 527.721 9.6 527.721 10.72C527.721 10.8267 527.714 10.9467 527.701 11.08C527.701 11.2133 527.694 11.34 527.681 11.46H518.781V9.8H526.361L525.381 10.32C525.394 9.70667 525.268 9.16667 525.001 8.7C524.734 8.23333 524.368 7.86667 523.901 7.6C523.448 7.33333 522.921 7.2 522.321 7.2C521.708 7.2 521.168 7.33333 520.701 7.6C520.248 7.86667 519.888 8.24 519.621 8.72C519.368 9.18667 519.241 9.74 519.241 10.38V10.78C519.241 11.42 519.388 11.9867 519.681 12.48C519.974 12.9733 520.388 13.3533 520.921 13.62C521.454 13.8867 522.068 14.02 522.761 14.02C523.361 14.02 523.901 13.9267 524.381 13.74C524.861 13.5533 525.288 13.26 525.661 12.86L527.001 14.4C526.521 14.96 525.914 15.3933 525.181 15.7C524.461 15.9933 523.634 16.14 522.701 16.14ZM530.122 16V1.16H532.622V16H530.122ZM540.704 16.14C539.61 16.14 538.637 15.9067 537.784 15.44C536.93 14.96 536.257 14.3067 535.764 13.48C535.27 12.6533 535.024 11.7133 535.024 10.66C535.024 9.59333 535.27 8.65333 535.764 7.84C536.257 7.01333 536.93 6.36667 537.784 5.9C538.637 5.43333 539.61 5.2 540.704 5.2C541.81 5.2 542.79 5.43333 543.644 5.9C544.51 6.36667 545.184 7.00667 545.664 7.82C546.157 8.63333 546.404 9.58 546.404 10.66C546.404 11.7133 546.157 12.6533 545.664 13.48C545.184 14.3067 544.51 14.96 543.644 15.44C542.79 15.9067 541.81 16.14 540.704 16.14ZM540.704 14C541.317 14 541.864 13.8667 542.344 13.6C542.824 13.3333 543.197 12.9467 543.464 12.44C543.744 11.9333 543.884 11.34 543.884 10.66C543.884 9.96667 543.744 9.37333 543.464 8.88C543.197 8.37333 542.824 7.98667 542.344 7.72C541.864 7.45333 541.324 7.32 540.724 7.32C540.11 7.32 539.564 7.45333 539.084 7.72C538.617 7.98667 538.244 8.37333 537.964 8.88C537.684 9.37333 537.544 9.96667 537.544 10.66C537.544 11.34 537.684 11.9333 537.964 12.44C538.244 12.9467 538.617 13.3333 539.084 13.6C539.564 13.8667 540.104 14 540.704 14ZM554.714 16.14C553.848 16.14 553.054 15.94 552.334 15.54C551.628 15.14 551.061 14.54 550.634 13.74C550.221 12.9267 550.014 11.9 550.014 10.66C550.014 9.40667 550.214 8.38 550.614 7.58C551.028 6.78 551.588 6.18667 552.294 5.8C553.001 5.4 553.808 5.2 554.714 5.2C555.768 5.2 556.694 5.42667 557.494 5.88C558.308 6.33333 558.948 6.96667 559.414 7.78C559.894 8.59333 560.134 9.55333 560.134 10.66C560.134 11.7667 559.894 12.7333 559.414 13.56C558.948 14.3733 558.308 15.0067 557.494 15.46C556.694 15.9133 555.768 16.14 554.714 16.14ZM548.794 19.88V5.32H551.174V7.84L551.094 10.68L551.294 13.52V19.88H548.794ZM554.434 14C555.034 14 555.568 13.8667 556.034 13.6C556.514 13.3333 556.894 12.9467 557.174 12.44C557.454 11.9333 557.594 11.34 557.594 10.66C557.594 9.96667 557.454 9.37333 557.174 8.88C556.894 8.37333 556.514 7.98667 556.034 7.72C555.568 7.45333 555.034 7.32 554.434 7.32C553.834 7.32 553.294 7.45333 552.814 7.72C552.334 7.98667 551.954 8.37333 551.674 8.88C551.394 9.37333 551.254 9.96667 551.254 10.66C551.254 11.34 551.394 11.9333 551.674 12.44C551.954 12.9467 552.334 13.3333 552.814 13.6C553.294 13.8667 553.834 14 554.434 14ZM573.053 16.14C571.866 16.14 570.826 15.9067 569.933 15.44C569.053 14.96 568.366 14.3067 567.873 13.48C567.393 12.6533 567.153 11.7133 567.153 10.66C567.153 9.59333 567.386 8.65333 567.853 7.84C568.333 7.01333 568.986 6.36667 569.813 5.9C570.653 5.43333 571.606 5.2 572.673 5.2C573.713 5.2 574.639 5.42667 575.453 5.88C576.266 6.33333 576.906 6.97333 577.373 7.8C577.839 8.62667 578.073 9.6 578.073 10.72C578.073 10.8267 578.066 10.9467 578.053 11.08C578.053 11.2133 578.046 11.34 578.033 11.46H569.133V9.8H576.713L575.733 10.32C575.746 9.70667 575.619 9.16667 575.353 8.7C575.086 8.23333 574.719 7.86667 574.253 7.6C573.799 7.33333 573.273 7.2 572.673 7.2C572.059 7.2 571.519 7.33333 571.053 7.6C570.599 7.86667 570.239 8.24 569.973 8.72C569.719 9.18667 569.593 9.74 569.593 10.38V10.78C569.593 11.42 569.739 11.9867 570.033 12.48C570.326 12.9733 570.739 13.3533 571.273 13.62C571.806 13.8867 572.419 14.02 573.113 14.02C573.713 14.02 574.253 13.9267 574.733 13.74C575.213 13.5533 575.639 13.26 576.013 12.86L577.353 14.4C576.873 14.96 576.266 15.3933 575.533 15.7C574.813 15.9933 573.986 16.14 573.053 16.14ZM583.119 16L578.539 5.32H581.139L585.079 14.74H583.799L587.879 5.32H590.279L585.699 16H583.119ZM596.568 16.14C595.382 16.14 594.342 15.9067 593.448 15.44C592.568 14.96 591.882 14.3067 591.388 13.48C590.908 12.6533 590.668 11.7133 590.668 10.66C590.668 9.59333 590.902 8.65333 591.368 7.84C591.848 7.01333 592.502 6.36667 593.328 5.9C594.168 5.43333 595.122 5.2 596.188 5.2C597.228 5.2 598.155 5.42667 598.968 5.88C599.782 6.33333 600.422 6.97333 600.888 7.8C601.355 8.62667 601.588 9.6 601.588 10.72C601.588 10.8267 601.582 10.9467 601.568 11.08C601.568 11.2133 601.562 11.34 601.548 11.46H592.648V9.8H600.228L599.248 10.32C599.262 9.70667 599.135 9.16667 598.868 8.7C598.602 8.23333 598.235 7.86667 597.768 7.6C597.315 7.33333 596.788 7.2 596.188 7.2C595.575 7.2 595.035 7.33333 594.568 7.6C594.115 7.86667 593.755 8.24 593.488 8.72C593.235 9.18667 593.108 9.74 593.108 10.38V10.78C593.108 11.42 593.255 11.9867 593.548 12.48C593.842 12.9733 594.255 13.3533 594.788 13.62C595.322 13.8867 595.935 14.02 596.628 14.02C597.228 14.02 597.768 13.9267 598.248 13.74C598.728 13.5533 599.155 13.26 599.528 12.86L600.868 14.4C600.388 14.96 599.782 15.3933 599.048 15.7C598.328 15.9933 597.502 16.14 596.568 16.14ZM603.99 16V5.32H606.37V8.26L606.09 7.4C606.41 6.68 606.91 6.13333 607.59 5.76C608.283 5.38667 609.143 5.2 610.17 5.2V7.58C610.063 7.55333 609.963 7.54 609.87 7.54C609.776 7.52667 609.683 7.52 609.59 7.52C608.643 7.52 607.89 7.8 607.33 8.36C606.77 8.90667 606.49 9.72667 606.49 10.82V16H603.99ZM613.561 20.02C613.041 20.02 612.521 19.9333 612.001 19.76C611.481 19.5867 611.048 19.3467 610.701 19.04L611.701 17.2C611.954 17.4267 612.241 17.6067 612.561 17.74C612.881 17.8733 613.208 17.94 613.541 17.94C613.994 17.94 614.361 17.8267 614.641 17.6C614.921 17.3733 615.181 16.9933 615.421 16.46L616.041 15.06L616.241 14.76L620.281 5.32H622.681L617.681 16.86C617.348 17.66 616.974 18.2933 616.561 18.76C616.161 19.2267 615.708 19.5533 615.201 19.74C614.708 19.9267 614.161 20.02 613.561 20.02ZM615.761 16.38L610.941 5.32H613.541L617.461 14.54L615.761 16.38ZM629.771 16V1.16H632.271V16H629.771ZM640.352 16.14C639.259 16.14 638.285 15.9067 637.432 15.44C636.579 14.96 635.905 14.3067 635.412 13.48C634.919 12.6533 634.672 11.7133 634.672 10.66C634.672 9.59333 634.919 8.65333 635.412 7.84C635.905 7.01333 636.579 6.36667 637.432 5.9C638.285 5.43333 639.259 5.2 640.352 5.2C641.459 5.2 642.439 5.43333 643.292 5.9C644.159 6.36667 644.832 7.00667 645.312 7.82C645.805 8.63333 646.052 9.58 646.052 10.66C646.052 11.7133 645.805 12.6533 645.312 13.48C644.832 14.3067 644.159 14.96 643.292 15.44C642.439 15.9067 641.459 16.14 640.352 16.14ZM640.352 14C640.965 14 641.512 13.8667 641.992 13.6C642.472 13.3333 642.845 12.9467 643.112 12.44C643.392 11.9333 643.532 11.34 643.532 10.66C643.532 9.96667 643.392 9.37333 643.112 8.88C642.845 8.37333 642.472 7.98667 641.992 7.72C641.512 7.45333 640.972 7.32 640.372 7.32C639.759 7.32 639.212 7.45333 638.732 7.72C638.265 7.98667 637.892 8.37333 637.612 8.88C637.332 9.37333 637.192 9.96667 637.192 10.66C637.192 11.34 637.332 11.9333 637.612 12.44C637.892 12.9467 638.265 13.3333 638.732 13.6C639.212 13.8667 639.752 14 640.352 14ZM653.243 16.14C652.149 16.14 651.176 15.9067 650.323 15.44C649.469 14.96 648.796 14.3067 648.303 13.48C647.809 12.6533 647.563 11.7133 647.563 10.66C647.563 9.59333 647.809 8.65333 648.303 7.84C648.796 7.01333 649.469 6.36667 650.323 5.9C651.176 5.43333 652.149 5.2 653.243 5.2C654.349 5.2 655.329 5.43333 656.183 5.9C657.049 6.36667 657.723 7.00667 658.203 7.82C658.696 8.63333 658.943 9.58 658.943 10.66C658.943 11.7133 658.696 12.6533 658.203 13.48C657.723 14.3067 657.049 14.96 656.183 15.44C655.329 15.9067 654.349 16.14 653.243 16.14ZM653.243 14C653.856 14 654.403 13.8667 654.883 13.6C655.363 13.3333 655.736 12.9467 656.003 12.44C656.283 11.9333 656.423 11.34 656.423 10.66C656.423 9.96667 656.283 9.37333 656.003 8.88C655.736 8.37333 655.363 7.98667 654.883 7.72C654.403 7.45333 653.863 7.32 653.263 7.32C652.649 7.32 652.103 7.45333 651.623 7.72C651.156 7.98667 650.783 8.37333 650.503 8.88C650.223 9.37333 650.083 9.96667 650.083 10.66C650.083 11.34 650.223 11.9333 650.503 12.44C650.783 12.9467 651.156 13.3333 651.623 13.6C652.103 13.8667 652.643 14 653.243 14ZM667.253 16.14C666.387 16.14 665.593 15.94 664.873 15.54C664.167 15.14 663.6 14.54 663.173 13.74C662.76 12.9267 662.553 11.9 662.553 10.66C662.553 9.40667 662.753 8.38 663.153 7.58C663.567 6.78 664.127 6.18667 664.833 5.8C665.54 5.4 666.347 5.2 667.253 5.2C668.307 5.2 669.233 5.42667 670.033 5.88C670.847 6.33333 671.487 6.96667 671.953 7.78C672.433 8.59333 672.673 9.55333 672.673 10.66C672.673 11.7667 672.433 12.7333 671.953 13.56C671.487 14.3733 670.847 15.0067 670.033 15.46C669.233 15.9133 668.307 16.14 667.253 16.14ZM661.333 19.88V5.32H663.713V7.84L663.633 10.68L663.833 13.52V19.88H661.333ZM666.973 14C667.573 14 668.107 13.8667 668.573 13.6C669.053 13.3333 669.433 12.9467 669.713 12.44C669.993 11.9333 670.133 11.34 670.133 10.66C670.133 9.96667 669.993 9.37333 669.713 8.88C669.433 8.37333 669.053 7.98667 668.573 7.72C668.107 7.45333 667.573 7.32 666.973 7.32C666.373 7.32 665.833 7.45333 665.353 7.72C664.873 7.98667 664.493 8.37333 664.213 8.88C663.933 9.37333 663.793 9.96667 663.793 10.66C663.793 11.34 663.933 11.9333 664.213 12.44C664.493 12.9467 664.873 13.3333 665.353 13.6C665.833 13.8667 666.373 14 666.973 14ZM685.372 16.14C684.278 16.14 683.305 15.9067 682.452 15.44C681.598 14.96 680.925 14.3067 680.432 13.48C679.938 12.6533 679.692 11.7133 679.692 10.66C679.692 9.59333 679.938 8.65333 680.432 7.84C680.925 7.01333 681.598 6.36667 682.452 5.9C683.305 5.43333 684.278 5.2 685.372 5.2C686.478 5.2 687.458 5.43333 688.312 5.9C689.178 6.36667 689.852 7.00667 690.332 7.82C690.825 8.63333 691.072 9.58 691.072 10.66C691.072 11.7133 690.825 12.6533 690.332 13.48C689.852 14.3067 689.178 14.96 688.312 15.44C687.458 15.9067 686.478 16.14 685.372 16.14ZM685.372 14C685.985 14 686.532 13.8667 687.012 13.6C687.492 13.3333 687.865 12.9467 688.132 12.44C688.412 11.9333 688.552 11.34 688.552 10.66C688.552 9.96667 688.412 9.37333 688.132 8.88C687.865 8.37333 687.492 7.98667 687.012 7.72C686.532 7.45333 685.992 7.32 685.392 7.32C684.778 7.32 684.232 7.45333 683.752 7.72C683.285 7.98667 682.912 8.37333 682.632 8.88C682.352 9.37333 682.212 9.96667 682.212 10.66C682.212 11.34 682.352 11.9333 682.632 12.44C682.912 12.9467 683.285 13.3333 683.752 13.6C684.232 13.8667 684.772 14 685.372 14ZM693.802 16V4.72C693.802 3.6 694.129 2.70667 694.782 2.04C695.449 1.36 696.396 1.02 697.622 1.02C698.062 1.02 698.476 1.06667 698.862 1.16C699.262 1.25333 699.596 1.4 699.862 1.6L699.182 3.48C698.996 3.33333 698.782 3.22667 698.542 3.16C698.302 3.08 698.056 3.04 697.802 3.04C697.282 3.04 696.889 3.18667 696.622 3.48C696.356 3.76 696.222 4.18667 696.222 4.76V5.96L696.302 7.08V16H693.802ZM692.042 7.4V5.4H699.162V7.4H692.042ZM711.172 16.14C710.079 16.14 709.106 15.9067 708.252 15.44C707.399 14.96 706.726 14.3067 706.232 13.48C705.739 12.6533 705.492 11.7133 705.492 10.66C705.492 9.59333 705.739 8.65333 706.232 7.84C706.726 7.01333 707.399 6.36667 708.252 5.9C709.106 5.43333 710.079 5.2 711.172 5.2C712.279 5.2 713.259 5.43333 714.112 5.9C714.979 6.36667 715.652 7.00667 716.132 7.82C716.626 8.63333 716.872 9.58 716.872 10.66C716.872 11.7133 716.626 12.6533 716.132 13.48C715.652 14.3067 714.979 14.96 714.112 15.44C713.259 15.9067 712.279 16.14 711.172 16.14ZM711.172 14C711.786 14 712.332 13.8667 712.812 13.6C713.292 13.3333 713.666 12.9467 713.932 12.44C714.212 11.9333 714.352 11.34 714.352 10.66C714.352 9.96667 714.212 9.37333 713.932 8.88C713.666 8.37333 713.292 7.98667 712.812 7.72C712.332 7.45333 711.792 7.32 711.192 7.32C710.579 7.32 710.032 7.45333 709.552 7.72C709.086 7.98667 708.712 8.37333 708.432 8.88C708.152 9.37333 708.012 9.96667 708.012 10.66C708.012 11.34 708.152 11.9333 708.432 12.44C708.712 12.9467 709.086 13.3333 709.552 13.6C710.032 13.8667 710.572 14 711.172 14ZM723.783 16.14C722.876 16.14 722.076 15.9733 721.383 15.64C720.69 15.2933 720.15 14.7733 719.763 14.08C719.376 13.3733 719.183 12.4867 719.183 11.42V5.32H721.683V11.08C721.683 12.04 721.896 12.76 722.323 13.24C722.763 13.7067 723.383 13.94 724.183 13.94C724.77 13.94 725.276 13.82 725.703 13.58C726.143 13.34 726.483 12.98 726.723 12.5C726.976 12.02 727.103 11.4267 727.103 10.72V5.32H729.603V16H727.223V13.12L727.643 14C727.283 14.6933 726.756 15.2267 726.063 15.6C725.37 15.96 724.61 16.14 723.783 16.14ZM732.876 16V5.32H735.256V8.26L734.976 7.4C735.296 6.68 735.796 6.13333 736.476 5.76C737.17 5.38667 738.03 5.2 739.056 5.2V7.58C738.95 7.55333 738.85 7.54 738.756 7.54C738.663 7.52667 738.57 7.52 738.476 7.52C737.53 7.52 736.776 7.8 736.216 8.36C735.656 8.90667 735.376 9.72667 735.376 10.82V16H732.876ZM752.722 16.14C751.855 16.14 751.062 15.94 750.342 15.54C749.635 15.14 749.069 14.54 748.642 13.74C748.229 12.9267 748.022 11.9 748.022 10.66C748.022 9.40667 748.222 8.38 748.622 7.58C749.035 6.78 749.595 6.18667 750.302 5.8C751.009 5.4 751.815 5.2 752.722 5.2C753.775 5.2 754.702 5.42667 755.502 5.88C756.315 6.33333 756.955 6.96667 757.422 7.78C757.902 8.59333 758.142 9.55333 758.142 10.66C758.142 11.7667 757.902 12.7333 757.422 13.56C756.955 14.3733 756.315 15.0067 755.502 15.46C754.702 15.9133 753.775 16.14 752.722 16.14ZM746.802 19.88V5.32H749.182V7.84L749.102 10.68L749.302 13.52V19.88H746.802ZM752.442 14C753.042 14 753.575 13.8667 754.042 13.6C754.522 13.3333 754.902 12.9467 755.182 12.44C755.462 11.9333 755.602 11.34 755.602 10.66C755.602 9.96667 755.462 9.37333 755.182 8.88C754.902 8.37333 754.522 7.98667 754.042 7.72C753.575 7.45333 753.042 7.32 752.442 7.32C751.842 7.32 751.302 7.45333 750.822 7.72C750.342 7.98667 749.962 8.37333 749.682 8.88C749.402 9.37333 749.262 9.96667 749.262 10.66C749.262 11.34 749.402 11.9333 749.682 12.44C749.962 12.9467 750.342 13.3333 750.822 13.6C751.302 13.8667 751.842 14 752.442 14ZM760.513 16V5.32H762.893V8.26L762.613 7.4C762.933 6.68 763.433 6.13333 764.113 5.76C764.806 5.38667 765.666 5.2 766.693 5.2V7.58C766.586 7.55333 766.486 7.54 766.393 7.54C766.3 7.52667 766.206 7.52 766.113 7.52C765.166 7.52 764.413 7.8 763.853 8.36C763.293 8.90667 763.013 9.72667 763.013 10.82V16H760.513ZM773.516 16.14C772.423 16.14 771.45 15.9067 770.596 15.44C769.743 14.96 769.07 14.3067 768.576 13.48C768.083 12.6533 767.836 11.7133 767.836 10.66C767.836 9.59333 768.083 8.65333 768.576 7.84C769.07 7.01333 769.743 6.36667 770.596 5.9C771.45 5.43333 772.423 5.2 773.516 5.2C774.623 5.2 775.603 5.43333 776.456 5.9C777.323 6.36667 777.996 7.00667 778.476 7.82C778.97 8.63333 779.216 9.58 779.216 10.66C779.216 11.7133 778.97 12.6533 778.476 13.48C777.996 14.3067 777.323 14.96 776.456 15.44C775.603 15.9067 774.623 16.14 773.516 16.14ZM773.516 14C774.13 14 774.676 13.8667 775.156 13.6C775.636 13.3333 776.01 12.9467 776.276 12.44C776.556 11.9333 776.696 11.34 776.696 10.66C776.696 9.96667 776.556 9.37333 776.276 8.88C776.01 8.37333 775.636 7.98667 775.156 7.72C774.676 7.45333 774.136 7.32 773.536 7.32C772.923 7.32 772.376 7.45333 771.896 7.72C771.43 7.98667 771.056 8.37333 770.776 8.88C770.496 9.37333 770.356 9.96667 770.356 10.66C770.356 11.34 770.496 11.9333 770.776 12.44C771.056 12.9467 771.43 13.3333 771.896 13.6C772.376 13.8667 772.916 14 773.516 14ZM786.127 16.14C785.1 16.14 784.173 15.9133 783.347 15.46C782.533 14.9933 781.893 14.3533 781.427 13.54C780.96 12.7267 780.727 11.7667 780.727 10.66C780.727 9.55333 780.96 8.59333 781.427 7.78C781.893 6.96667 782.533 6.33333 783.347 5.88C784.173 5.42667 785.1 5.2 786.127 5.2C787.02 5.2 787.82 5.4 788.527 5.8C789.233 6.18667 789.793 6.78 790.207 7.58C790.62 8.38 790.827 9.40667 790.827 10.66C790.827 11.9 790.627 12.9267 790.227 13.74C789.827 14.54 789.273 15.14 788.567 15.54C787.86 15.94 787.047 16.14 786.127 16.14ZM786.427 14C787.027 14 787.56 13.8667 788.027 13.6C788.507 13.3333 788.887 12.9467 789.167 12.44C789.46 11.9333 789.607 11.34 789.607 10.66C789.607 9.96667 789.46 9.37333 789.167 8.88C788.887 8.37333 788.507 7.98667 788.027 7.72C787.56 7.45333 787.027 7.32 786.427 7.32C785.827 7.32 785.287 7.45333 784.807 7.72C784.34 7.98667 783.96 8.37333 783.667 8.88C783.387 9.37333 783.247 9.96667 783.247 10.66C783.247 11.34 783.387 11.9333 783.667 12.44C783.96 12.9467 784.34 13.3333 784.807 13.6C785.287 13.8667 785.827 14 786.427 14ZM789.667 16V13.48L789.767 10.64L789.567 7.8V1.16H792.047V16H789.667ZM799.857 16.14C798.951 16.14 798.151 15.9733 797.457 15.64C796.764 15.2933 796.224 14.7733 795.837 14.08C795.451 13.3733 795.257 12.4867 795.257 11.42V5.32H797.757V11.08C797.757 12.04 797.971 12.76 798.397 13.24C798.837 13.7067 799.457 13.94 800.257 13.94C800.844 13.94 801.351 13.82 801.777 13.58C802.217 13.34 802.557 12.98 802.797 12.5C803.051 12.02 803.177 11.4267 803.177 10.72V5.32H805.677V16H803.297V13.12L803.717 14C803.357 14.6933 802.831 15.2267 802.137 15.6C801.444 15.96 800.684 16.14 799.857 16.14ZM813.851 16.14C812.731 16.14 811.731 15.9067 810.851 15.44C809.984 14.96 809.304 14.3067 808.811 13.48C808.317 12.6533 808.071 11.7133 808.071 10.66C808.071 9.59333 808.317 8.65333 808.811 7.84C809.304 7.01333 809.984 6.36667 810.851 5.9C811.731 5.43333 812.731 5.2 813.851 5.2C814.891 5.2 815.804 5.41333 816.591 5.84C817.391 6.25333 817.997 6.86667 818.411 7.68L816.491 8.8C816.171 8.29333 815.777 7.92 815.311 7.68C814.857 7.44 814.364 7.32 813.831 7.32C813.217 7.32 812.664 7.45333 812.171 7.72C811.677 7.98667 811.291 8.37333 811.011 8.88C810.731 9.37333 810.591 9.96667 810.591 10.66C810.591 11.3533 810.731 11.9533 811.011 12.46C811.291 12.9533 811.677 13.3333 812.171 13.6C812.664 13.8667 813.217 14 813.831 14C814.364 14 814.857 13.88 815.311 13.64C815.777 13.4 816.171 13.0267 816.491 12.52L818.411 13.64C817.997 14.44 817.391 15.06 816.591 15.5C815.804 15.9267 814.891 16.14 813.851 16.14ZM824.728 16.14C823.555 16.14 822.648 15.84 822.008 15.24C821.368 14.6267 821.048 13.7267 821.048 12.54V2.96H823.548V12.48C823.548 12.9867 823.675 13.38 823.928 13.66C824.195 13.94 824.562 14.08 825.028 14.08C825.588 14.08 826.055 13.9333 826.428 13.64L827.128 15.42C826.835 15.66 826.475 15.84 826.048 15.96C825.622 16.08 825.182 16.14 824.728 16.14ZM819.288 7.4V5.4H826.408V7.4H819.288ZM832.485 16.14C831.592 16.14 830.732 16.0267 829.905 15.8C829.092 15.56 828.445 15.2733 827.965 14.94L828.925 13.04C829.405 13.3467 829.978 13.6 830.645 13.8C831.312 14 831.978 14.1 832.645 14.1C833.432 14.1 833.998 13.9933 834.345 13.78C834.705 13.5667 834.885 13.28 834.885 12.92C834.885 12.6267 834.765 12.4067 834.525 12.26C834.285 12.1 833.972 11.98 833.585 11.9C833.198 11.82 832.765 11.7467 832.285 11.68C831.818 11.6133 831.345 11.5267 830.865 11.42C830.398 11.3 829.972 11.1333 829.585 10.92C829.198 10.6933 828.885 10.3933 828.645 10.02C828.405 9.64667 828.285 9.15333 828.285 8.54C828.285 7.86 828.478 7.27333 828.865 6.78C829.252 6.27333 829.792 5.88667 830.485 5.62C831.192 5.34 832.025 5.2 832.985 5.2C833.705 5.2 834.432 5.28 835.165 5.44C835.898 5.6 836.505 5.82667 836.985 6.12L836.025 8.02C835.518 7.71333 835.005 7.50667 834.485 7.4C833.978 7.28 833.472 7.22 832.965 7.22C832.205 7.22 831.638 7.33333 831.265 7.56C830.905 7.78667 830.725 8.07333 830.725 8.42C830.725 8.74 830.845 8.98 831.085 9.14C831.325 9.3 831.638 9.42667 832.025 9.52C832.412 9.61333 832.838 9.69333 833.305 9.76C833.785 9.81333 834.258 9.9 834.725 10.02C835.192 10.14 835.618 10.3067 836.005 10.52C836.405 10.72 836.725 11.0067 836.965 11.38C837.205 11.7533 837.325 12.24 837.325 12.84C837.325 13.5067 837.125 14.0867 836.725 14.58C836.338 15.0733 835.785 15.46 835.065 15.74C834.345 16.0067 833.485 16.14 832.485 16.14Z" fill="#D9D9D9"/>
</svg>
